<svg width="25" height="25" viewBox="0 0 25 25" fill="none" xmlns="http://www.w3.org/2000/svg">
<path d="M24.7035 9.1678C24.627 8.94255 24.4862 8.74463 24.2985 8.59847C24.1109 8.45231 23.8845 8.36431 23.6474 8.34533L16.7112 7.79418L13.7097 1.14996C13.6141 0.935968 13.4586 0.754209 13.262 0.626625C13.0654 0.49904 12.836 0.431083 12.6017 0.430954C12.3673 0.430826 12.1379 0.498531 11.9411 0.6259C11.7444 0.753268 11.5887 0.934856 11.4929 1.14875L8.49137 7.79418L1.55515 8.34533C1.32211 8.36379 1.09931 8.449 0.913428 8.59077C0.727541 8.73254 0.586434 8.92486 0.506986 9.14472C0.427538 9.36458 0.413113 9.60268 0.465439 9.83052C0.517764 10.0584 0.634623 10.2663 0.802036 10.4295L5.92785 15.4263L4.11502 23.2763C4.05997 23.5139 4.07762 23.7626 4.16566 23.99C4.2537 24.2175 4.40807 24.4132 4.60874 24.5519C4.80942 24.6905 5.04713 24.7656 5.29103 24.7675C5.53493 24.7693 5.77376 24.6978 5.97652 24.5623L12.6013 20.1458L19.226 24.5623C19.4333 24.6999 19.6777 24.7707 19.9264 24.7653C20.1751 24.7598 20.4161 24.6783 20.6171 24.5318C20.8182 24.3852 20.9695 24.1806 21.0507 23.9455C21.132 23.7104 21.1393 23.456 21.0717 23.2167L18.8464 15.43L24.3652 10.4635C24.7266 10.1375 24.8592 9.62891 24.7035 9.1678Z" fill="#F3CD03"/>
</svg>
