<svg width="46" height="46" viewBox="0 0 46 46" fill="none" xmlns="http://www.w3.org/2000/svg">
<path d="M37.8 29C37.5338 29.6032 37.4543 30.2724 37.572 30.9212C37.6896 31.57 37.9989 32.1686 38.46 32.64L38.58 32.76C38.9519 33.1315 39.2469 33.5726 39.4482 34.0582C39.6495 34.5438 39.7531 35.0643 39.7531 35.59C39.7531 36.1157 39.6495 36.6362 39.4482 37.1218C39.2469 37.6073 38.9519 38.0485 38.58 38.42C38.2085 38.7919 37.7673 39.0869 37.2817 39.2882C36.7962 39.4895 36.2756 39.5931 35.75 39.5931C35.2243 39.5931 34.7038 39.4895 34.2182 39.2882C33.7326 39.0869 33.2915 38.7919 32.92 38.42L32.8 38.3C32.3286 37.8389 31.73 37.5296 31.0812 37.412C30.4324 37.2943 29.7632 37.3738 29.16 37.64C28.5685 37.8935 28.064 38.3145 27.7086 38.8511C27.3533 39.3876 27.1626 40.0164 27.16 40.66V41C27.16 42.0609 26.7386 43.0783 25.9884 43.8284C25.2383 44.5786 24.2209 45 23.16 45C22.0991 45 21.0817 44.5786 20.3316 43.8284C19.5814 43.0783 19.16 42.0609 19.16 41V40.82C19.1445 40.158 18.9302 39.516 18.545 38.9774C18.1598 38.4388 17.6215 38.0286 17 37.8C16.3968 37.5338 15.7276 37.4543 15.0788 37.572C14.43 37.6896 13.8314 37.9989 13.36 38.46L13.24 38.58C12.8685 38.9519 12.4273 39.2469 11.9418 39.4482C11.4562 39.6495 10.9357 39.7531 10.41 39.7531C9.88433 39.7531 9.36383 39.6495 8.87824 39.4482C8.39264 39.2469 7.95149 38.9519 7.58 38.58C7.20809 38.2085 6.91306 37.7673 6.71176 37.2818C6.51046 36.7962 6.40685 36.2757 6.40685 35.75C6.40685 35.2243 6.51046 34.7038 6.71176 34.2182C6.91306 33.7326 7.20809 33.2915 7.58 32.92L7.7 32.8C8.16107 32.3286 8.47037 31.73 8.58801 31.0812C8.70564 30.4324 8.62623 29.7632 8.36 29.16C8.10647 28.5685 7.68551 28.064 7.14893 27.7086C6.61235 27.3533 5.98357 27.1626 5.34 27.16H5C3.93913 27.16 2.92172 26.7386 2.17157 25.9884C1.42143 25.2383 1 24.2209 1 23.16C1 22.0991 1.42143 21.0817 2.17157 20.3316C2.92172 19.5814 3.93913 19.16 5 19.16H5.18C5.84199 19.1445 6.48401 18.9302 7.0226 18.545C7.56118 18.1598 7.97143 17.6215 8.2 17C8.46623 16.3968 8.54564 15.7276 8.42801 15.0788C8.31037 14.43 8.00107 13.8314 7.54 13.36L7.42 13.24C7.04809 12.8685 6.75306 12.4274 6.55176 11.9418C6.35046 11.4562 6.24685 10.9357 6.24685 10.41C6.24685 9.88434 6.35046 9.36383 6.55176 8.87824C6.75306 8.39264 7.04809 7.95149 7.42 7.58C7.79149 7.20809 8.23264 6.91306 8.71824 6.71176C9.20383 6.51046 9.72433 6.40685 10.25 6.40685C10.7757 6.40685 11.2962 6.51046 11.7818 6.71176C12.2673 6.91306 12.7085 7.20809 13.08 7.58L13.2 7.7C13.6714 8.16107 14.27 8.47037 14.9188 8.58801C15.5676 8.70564 16.2368 8.62623 16.84 8.36H17C17.5915 8.10647 18.096 7.68551 18.4514 7.14893C18.8067 6.61235 18.9974 5.98357 19 5.34V5C19 3.93913 19.4214 2.92172 20.1716 2.17157C20.9217 1.42143 21.9391 1 23 1C24.0609 1 25.0783 1.42143 25.8284 2.17157C26.5786 2.92172 27 3.93913 27 5V5.18C27.0026 5.82357 27.1933 6.45235 27.5486 6.98893C27.904 7.52551 28.4085 7.94647 29 8.2C29.6032 8.46623 30.2724 8.54565 30.9212 8.42801C31.57 8.31037 32.1686 8.00107 32.64 7.54L32.76 7.42C33.1315 7.04809 33.5726 6.75306 34.0582 6.55176C34.5438 6.35046 35.0643 6.24685 35.59 6.24685C36.1156 6.24685 36.6362 6.35046 37.1217 6.55176C37.6073 6.75306 38.0485 7.04809 38.42 7.42C38.7919 7.79149 39.0869 8.23264 39.2882 8.71824C39.4895 9.20383 39.5931 9.72434 39.5931 10.25C39.5931 10.7757 39.4895 11.2962 39.2882 11.7818C39.0869 12.2674 38.7919 12.7085 38.42 13.08L38.3 13.2C37.8389 13.6714 37.5296 14.27 37.412 14.9188C37.2943 15.5676 37.3738 16.2368 37.64 16.84V17C37.8935 17.5915 38.3145 18.096 38.8511 18.4514C39.3876 18.8067 40.0164 18.9974 40.66 19H41C42.0609 19 43.0783 19.4214 43.8284 20.1716C44.5786 20.9217 45 21.9391 45 23C45 24.0609 44.5786 25.0783 43.8284 25.8284C43.0783 26.5786 42.0609 27 41 27H40.82C40.1764 27.0026 39.5476 27.1933 39.0111 27.5486C38.4745 27.904 38.0535 28.4085 37.8 29V29Z" stroke="#23A6F0" stroke-width="2" stroke-linecap="round" stroke-linejoin="round"/>
</svg>
